<svg data-v-423bf9ae="" xmlns="http://www.w3.org/2000/svg" viewBox="0 0 186.85188380404006 60" class="font"><!----><!----><defs data-v-423bf9ae=""><linearGradient data-v-423bf9ae="" gradientTransform="rotate(25)" id="019e6c1f-54f6-4ace-89cc-24f61ef72061" x1="0%" y1="0%" x2="100%" y2="0%"><stop data-v-423bf9ae="" offset="0%" style="stop-color: rgb(33, 105, 15); stop-opacity: 1;"></stop><stop data-v-423bf9ae="" offset="100%" style="stop-color: rgb(136, 200, 72); stop-opacity: 1;"></stop></linearGradient></defs><g data-v-423bf9ae="" id="f9639f99-5d1b-4ad7-bbcc-bca5b5ac9604" fill="url(#019e6c1f-54f6-4ace-89cc-24f61ef72061)" transform="matrix(6.563115149651338,0,0,6.563115149651338,-2.756508013052567,-23.75847609064892)"><path d="M3.46 8.30L3.46 8.30L3.46 8.30Q3.35 8.30 3.22 8.42L3.22 8.42L3.22 8.42Q3.09 8.53 2.97 8.73L2.97 8.73L2.97 8.73Q2.84 8.93 2.72 9.17L2.72 9.17L2.72 9.17Q2.60 9.41 2.50 9.65L2.50 9.65L2.50 9.65Q2.27 10.23 2.05 10.83L2.05 10.83L2.05 10.83Q1.83 11.43 1.79 11.87L1.79 11.87L1.79 11.87Q1.78 11.91 1.78 11.94L1.78 11.94L1.78 11.94Q1.78 11.98 1.78 12.00L1.78 12.00L1.78 12.00Q1.76 12.03 1.76 12.09L1.76 12.09L1.76 12.09Q1.74 12.28 1.69 12.39L1.69 12.39L1.69 12.39Q1.64 12.51 1.49 12.55L1.49 12.55L1.49 12.55Q1.33 12.58 1.16 12.59L1.16 12.59L1.16 12.59Q1.00 12.61 0.85 12.56L0.85 12.56L0.85 12.56Q0.75 12.54 0.70 12.46L0.70 12.46L0.70 12.46Q0.66 12.39 0.64 12.28L0.64 12.28L0.64 12.28Q0.62 12.18 0.61 12.09L0.61 12.09L0.61 12.09Q0.60 11.99 0.60 11.92L0.60 11.92L0.60 11.92Q0.60 11.84 0.62 11.41L0.62 11.41L0.62 11.41Q0.63 10.98 0.64 10.43L0.64 10.43L0.64 10.43Q0.66 9.88 0.66 9.36L0.66 9.36L0.66 9.36Q0.66 8.83 0.64 8.56L0.64 8.56L0.64 8.56Q0.62 8.37 0.59 8.20L0.59 8.20L0.59 8.20Q0.56 8.05 0.53 7.90L0.53 7.90L0.53 7.90Q0.49 7.75 0.42 7.64L0.42 7.64L0.42 7.64Q0.57 7.56 0.72 7.51L0.72 7.51L0.72 7.51Q0.88 7.45 1.00 7.42L1.00 7.42L1.00 7.42Q1.15 7.38 1.27 7.37L1.27 7.37L1.27 7.37Q1.60 7.34 1.78 7.37L1.78 7.37L1.78 7.37Q1.97 7.40 1.97 7.66L1.97 7.66L1.97 7.66Q1.97 7.89 1.93 8.37L1.93 8.37L1.93 8.37Q1.90 8.86 1.86 9.72L1.86 9.72L1.86 9.72Q2.01 9.38 2.21 8.95L2.21 8.95L2.21 8.95Q2.42 8.52 2.65 8.14L2.65 8.14L2.65 8.14Q2.88 7.77 3.13 7.51L3.13 7.51L3.13 7.51Q3.38 7.26 3.60 7.26L3.60 7.26L3.60 7.26Q3.75 7.26 3.94 7.32L3.94 7.32L3.94 7.32Q4.14 7.38 4.32 7.49L4.32 7.49L4.32 7.49Q4.50 7.59 4.64 7.71L4.64 7.71L4.64 7.71Q4.79 7.83 4.84 7.96L4.84 7.96L4.84 7.96Q4.89 8.09 4.91 8.38L4.91 8.38L4.91 8.38Q4.92 8.67 4.91 9.02L4.91 9.02L4.91 9.02Q5.02 8.76 5.15 8.52L5.15 8.52L5.15 8.52Q5.29 8.27 5.43 8.06L5.43 8.06L5.43 8.06Q5.58 7.85 5.73 7.70L5.73 7.70L5.73 7.70Q5.88 7.55 6.00 7.49L6.00 7.49L6.00 7.49Q6.17 7.42 6.40 7.46L6.40 7.46L6.40 7.46Q6.63 7.51 6.86 7.61L6.86 7.61L6.86 7.61Q7.08 7.71 7.25 7.85L7.25 7.85L7.25 7.85Q7.42 7.98 7.46 8.11L7.46 8.11L7.46 8.11Q7.51 8.24 7.53 8.53L7.53 8.53L7.53 8.53Q7.56 8.82 7.57 9.16L7.57 9.16L7.57 9.16Q7.59 9.50 7.59 9.86L7.59 9.86L7.59 9.86Q7.59 10.23 7.57 10.50L7.57 10.50L7.57 10.50Q7.55 11.29 7.59 11.75L7.59 11.75L7.59 11.75Q7.63 12.21 7.92 12.43L7.92 12.43L7.92 12.43Q7.72 12.55 7.56 12.61L7.56 12.61L7.56 12.61Q7.40 12.67 7.27 12.70L7.27 12.70L7.27 12.70Q7.12 12.74 7.01 12.74L7.01 12.74L7.01 12.74Q6.86 12.74 6.77 12.67L6.77 12.67L6.77 12.67Q6.67 12.59 6.62 12.47L6.62 12.47L6.62 12.47Q6.56 12.35 6.55 12.20L6.55 12.20L6.55 12.20Q6.54 12.04 6.54 11.89L6.54 11.89L6.54 11.89Q6.54 11.76 6.56 11.44L6.56 11.44L6.56 11.44Q6.58 11.12 6.59 10.71L6.59 10.71L6.59 10.71Q6.60 10.29 6.59 9.86L6.59 9.86L6.59 9.86Q6.58 9.43 6.53 9.07L6.53 9.07L6.53 9.07Q6.48 8.71 6.37 8.48L6.37 8.48L6.37 8.48Q6.26 8.24 6.07 8.24L6.07 8.24L6.07 8.24Q5.91 8.24 5.76 8.44L5.76 8.44L5.76 8.44Q5.61 8.64 5.47 8.96L5.47 8.96L5.47 8.96Q5.33 9.28 5.23 9.67L5.23 9.67L5.23 9.67Q5.13 10.06 5.04 10.45L5.04 10.45L5.04 10.45Q4.96 10.83 4.92 11.15L4.92 11.15L4.92 11.15Q4.88 11.47 4.88 11.66L4.88 11.66L4.87 11.54L4.87 11.54Q4.87 11.80 4.87 12.02L4.87 12.02L4.87 12.02Q4.88 12.24 4.89 12.46L4.89 12.46L4.89 12.46Q4.91 12.54 4.74 12.60L4.74 12.60L4.74 12.60Q4.58 12.66 4.38 12.65L4.38 12.65L4.38 12.65Q4.18 12.65 4.02 12.56L4.02 12.56L4.02 12.56Q3.86 12.48 3.86 12.29L3.86 12.29L3.86 12.29Q3.86 12.15 3.86 11.88L3.86 11.88L3.86 11.88Q3.86 11.61 3.85 11.27L3.85 11.27L3.85 11.27Q3.84 10.92 3.83 10.55L3.83 10.55L3.83 10.55Q3.83 10.17 3.81 9.83L3.81 9.83L3.81 9.83Q3.81 9.57 3.81 9.30L3.81 9.30L3.81 9.30Q3.80 9.02 3.77 8.80L3.77 8.80L3.77 8.80Q3.75 8.57 3.67 8.44L3.67 8.44L3.67 8.44Q3.60 8.30 3.46 8.30ZM12.37 10.84L12.37 10.84L12.37 10.84Q12.37 10.99 12.27 11.30L12.27 11.30L12.27 11.30Q12.17 11.61 11.94 11.92L11.94 11.92L11.94 11.92Q11.70 12.22 11.34 12.46L11.34 12.46L11.34 12.46Q10.98 12.69 10.46 12.69L10.46 12.69L10.46 12.69Q9.72 12.69 9.22 12.28L9.22 12.28L9.22 12.28Q8.72 11.88 8.52 11.13L8.52 11.13L8.52 11.13Q8.35 10.50 8.43 9.78L8.43 9.78L8.43 9.78Q8.50 9.06 8.82 8.45L8.82 8.45L8.82 8.45Q9.13 7.83 9.69 7.40L9.69 7.40L9.69 7.40Q10.25 6.97 11.06 6.93L11.06 6.93L11.06 6.93Q11.47 6.92 11.74 7.08L11.74 7.08L11.74 7.08Q12.02 7.25 12.17 7.51L12.17 7.51L12.17 7.51Q12.32 7.77 12.35 8.07L12.35 8.07L12.35 8.07Q12.37 8.38 12.28 8.65L12.28 8.65L12.28 8.65Q12.20 8.93 12.01 9.11L12.01 9.11L12.01 9.11Q11.83 9.30 11.54 9.31L11.54 9.31L11.54 9.31Q11.25 9.34 11.07 9.24L11.07 9.24L11.07 9.24Q10.88 9.13 10.78 8.98L10.78 8.98L10.78 8.98Q10.68 8.83 10.64 8.67L10.64 8.67L10.64 8.67Q10.61 8.50 10.64 8.38L10.64 8.38L10.64 8.38Q10.68 8.20 10.77 8.05L10.77 8.05L10.77 8.05Q10.86 7.92 11.01 7.78L11.01 7.78L11.01 7.78Q11.17 7.64 11.43 7.56L11.43 7.56L11.43 7.56Q11.39 7.53 11.35 7.53L11.35 7.53L11.35 7.53Q11.31 7.53 11.27 7.52L11.27 7.52L11.27 7.52Q11.21 7.52 11.18 7.51L11.18 7.51L11.18 7.51Q10.96 7.51 10.68 7.66L10.68 7.66L10.68 7.66Q10.40 7.81 10.15 8.13L10.15 8.13L10.15 8.13Q9.90 8.46 9.73 8.98L9.73 8.98L9.73 8.98Q9.56 9.49 9.56 10.21L9.56 10.21L9.56 10.21Q9.56 10.53 9.63 10.83L9.63 10.83L9.63 10.83Q9.69 11.14 9.84 11.38L9.84 11.38L9.84 11.38Q9.98 11.62 10.19 11.76L10.19 11.76L10.19 11.76Q10.40 11.91 10.69 11.91L10.69 11.91L10.69 11.91Q11.02 11.91 11.27 11.76L11.27 11.76L11.27 11.76Q11.53 11.62 11.70 11.43L11.70 11.43L11.70 11.43Q11.88 11.24 11.98 11.05L11.98 11.05L11.98 11.05Q12.09 10.86 12.13 10.76L12.13 10.76L12.13 10.76Q12.17 10.68 12.27 10.68L12.27 10.68L12.27 10.68Q12.37 10.68 12.37 10.84ZM14.94 3.71L14.94 3.71L14.94 3.71Q14.92 4.20 14.85 4.84L14.85 4.84L14.85 4.84Q14.78 5.48 14.70 6.22L14.70 6.22L14.70 6.22Q14.63 6.96 14.55 7.77L14.55 7.77L14.55 7.77Q14.48 8.57 14.42 9.39L14.42 9.39L14.42 9.39Q14.37 10.21 14.38 10.73L14.38 10.73L14.38 10.73Q14.38 11.24 14.44 11.57L14.44 11.57L14.44 11.57Q14.49 11.89 14.59 12.09L14.59 12.09L14.59 12.09Q14.68 12.28 14.83 12.46L14.83 12.46L14.83 12.46Q14.66 12.56 14.51 12.62L14.51 12.62L14.51 12.62Q14.36 12.67 14.25 12.70L14.25 12.70L14.25 12.70Q14.11 12.74 14 12.74L14 12.74L14 12.74Q13.79 12.74 13.64 12.54L13.64 12.54L13.64 12.54Q13.49 12.35 13.41 12.03L13.41 12.03L13.41 12.03Q13.32 11.72 13.27 11.33L13.27 11.33L13.27 11.33Q13.22 10.94 13.22 10.55L13.22 10.55L13.22 10.55Q13.22 10.14 13.25 9.60L13.25 9.60L13.25 9.60Q13.28 9.06 13.31 8.46L13.31 8.46L13.31 8.46Q13.34 7.85 13.38 7.18L13.38 7.18L13.38 7.18Q13.43 6.52 13.45 5.87L13.45 5.87L13.45 5.87Q13.48 5.36 13.51 4.95L13.51 4.95L13.51 4.95Q13.54 4.59 13.55 4.30L13.55 4.30L13.55 4.30Q13.56 4.01 13.54 3.95L13.54 3.95L13.54 3.95Q13.62 3.84 13.74 3.79L13.74 3.79L13.74 3.79Q13.86 3.73 13.97 3.69L13.97 3.69L13.97 3.69Q14.11 3.65 14.25 3.62L14.25 3.62L14.51 3.62L14.51 3.62Q14.62 3.62 14.74 3.64L14.74 3.64L14.74 3.64Q14.86 3.66 14.94 3.71ZM19.36 10.21L19.36 10.21L19.36 10.21Q19.33 10.75 19.17 11.20L19.17 11.20L19.17 11.20Q19.02 11.65 18.74 11.98L18.74 11.98L18.74 11.98Q18.47 12.32 18.09 12.51L18.09 12.51L18.09 12.51Q17.72 12.70 17.27 12.71L17.27 12.71L17.27 12.71Q16.87 12.73 16.52 12.52L16.52 12.52L16.52 12.52Q16.17 12.32 15.91 11.95L15.91 11.95L15.91 11.95Q15.65 11.58 15.52 11.07L15.52 11.07L15.52 11.07Q15.39 10.55 15.45 9.95L15.45 9.95L15.45 9.95Q15.49 9.26 15.71 8.76L15.71 8.76L15.71 8.76Q15.93 8.26 16.17 7.93L16.17 7.93L16.17 7.93Q16.42 7.60 16.63 7.44L16.63 7.44L16.63 7.44Q16.84 7.29 16.90 7.26L16.90 7.26L16.90 7.26Q16.99 7.22 17.08 7.24L17.08 7.24L17.08 7.24Q17.16 7.26 17.25 7.29L17.25 7.29L17.25 7.29Q17.28 7.30 17.31 7.36L17.31 7.36L17.31 7.36Q17.36 7.45 17.38 7.71L17.38 7.71L17.38 7.71Q17.45 7.56 17.55 7.46L17.55 7.46L17.55 7.46Q17.66 7.37 17.77 7.33L17.77 7.33L17.77 7.33Q17.91 7.27 18.05 7.26L18.05 7.26L18.05 7.26Q18.14 7.25 18.38 7.41L18.38 7.41L18.38 7.41Q18.62 7.57 18.85 7.93L18.85 7.93L18.85 7.93Q19.07 8.29 19.24 8.85L19.24 8.85L19.24 8.85Q19.40 9.42 19.36 10.21ZM18.43 10.05L18.43 10.05L18.43 10.05Q18.44 9.72 18.41 9.39L18.41 9.39L18.41 9.39Q18.38 9.05 18.30 8.77L18.30 8.77L18.30 8.77Q18.22 8.49 18.12 8.32L18.12 8.32L18.12 8.32Q18.01 8.15 17.90 8.15L17.90 8.15L17.90 8.15Q17.77 8.18 17.62 8.27L17.62 8.27L17.62 8.27Q17.50 8.35 17.35 8.53L17.35 8.53L17.35 8.53Q17.20 8.71 17.06 9.04L17.06 9.04L17.06 9.04Q17.05 9.00 17.04 8.89L17.04 8.89L17.04 8.89Q17.02 8.79 17.01 8.63L17.01 8.63L17.01 8.63Q17.01 8.48 17.04 8.20L17.04 8.20L17.04 8.20Q16.84 8.44 16.74 8.75L16.74 8.75L16.74 8.75Q16.64 9.06 16.58 9.35L16.58 9.35L16.58 9.35Q16.53 9.69 16.50 10.04L16.50 10.04L16.50 10.04Q16.49 10.40 16.54 10.76L16.54 10.76L16.54 10.76Q16.58 11.12 16.70 11.39L16.70 11.39L16.70 11.39Q16.82 11.66 16.98 11.83L16.98 11.83L16.98 11.83Q17.14 11.99 17.38 11.98L17.38 11.98L17.38 11.98Q17.61 11.96 17.79 11.79L17.79 11.79L17.79 11.79Q17.96 11.61 18.10 11.33L18.10 11.33L18.10 11.33Q18.24 11.06 18.32 10.72L18.32 10.72L18.32 10.72Q18.40 10.38 18.43 10.05ZM21.52 12.20L21.52 12.20L21.52 12.20Q21.51 12.28 21.38 12.37L21.38 12.37L21.38 12.37Q21.25 12.46 21.08 12.52L21.08 12.52L21.08 12.52Q20.90 12.59 20.75 12.61L20.75 12.61L20.75 12.61Q20.60 12.63 20.55 12.58L20.55 12.58L20.55 12.58Q20.49 12.52 20.37 12.37L20.37 12.37L20.37 12.37Q20.25 12.22 20.22 11.88L20.22 11.88L20.22 11.88Q20.19 11.53 20.19 10.99L20.19 10.99L20.19 10.99Q20.19 10.45 20.18 9.79L20.18 9.79L20.18 9.24L20.18 9.24Q20.18 9.00 20.17 8.67L20.17 8.67L20.17 8.67Q20.17 8.34 20.15 7.98L20.15 7.98L20.15 7.98Q20.28 7.92 20.41 7.85L20.41 7.85L20.41 7.85Q20.54 7.79 20.64 7.75L20.64 7.75L20.64 7.75Q20.77 7.70 20.88 7.67L20.88 7.67L20.88 7.67Q21.16 7.59 21.31 7.57L21.31 7.57L21.31 7.57Q21.46 7.56 21.49 7.67L21.49 7.67L21.49 7.67Q21.51 7.75 21.48 8.07L21.48 8.07L21.48 8.07Q21.45 8.34 21.41 8.89L21.41 8.89L21.41 8.89Q21.37 9.45 21.27 10.43L21.27 10.43L21.27 10.43Q21.45 9.99 21.57 9.68L21.57 9.68L21.57 9.68Q21.68 9.37 21.77 9.17L21.77 9.17L21.77 9.17Q21.85 8.94 21.92 8.80L21.92 8.80L21.92 8.80Q21.98 8.63 22.09 8.41L22.09 8.41L22.09 8.41Q22.20 8.19 22.32 8.00L22.32 8.00L22.32 8.00Q22.44 7.81 22.54 7.66L22.54 7.66L22.54 7.66Q22.64 7.51 22.70 7.48L22.70 7.48L22.70 7.48Q22.74 7.45 22.94 7.48L22.94 7.48L22.94 7.48Q23.15 7.51 23.38 7.61L23.38 7.61L23.38 7.61Q23.61 7.71 23.83 7.90L23.83 7.90L23.83 7.90Q24.05 8.08 24.12 8.34L24.12 8.34L24.12 8.34Q24.20 8.64 24.18 9.13L24.18 9.13L24.18 9.13Q24.16 9.63 24.11 10.14L24.11 10.14L24.11 10.14Q24.06 10.66 24.04 11.13L24.04 11.13L24.04 11.13Q24.01 11.59 24.09 11.84L24.09 11.84L24.09 11.84Q24.12 11.98 24.17 12.09L24.17 12.09L24.17 12.09Q24.20 12.20 24.25 12.28L24.25 12.28L24.25 12.28Q24.29 12.37 24.35 12.41L24.35 12.41L24.35 12.41Q24.02 12.56 23.82 12.63L23.82 12.63L23.82 12.63Q23.61 12.70 23.50 12.73L23.50 12.73L23.50 12.73Q23.37 12.77 23.31 12.76L23.31 12.76L23.31 12.76Q23.19 12.71 23.10 12.55L23.10 12.55L23.10 12.55Q23.01 12.39 22.94 12.03L22.94 12.03L22.94 12.03Q22.91 11.92 22.92 11.67L22.92 11.67L22.92 11.67Q22.93 11.42 22.96 11.09L22.96 11.09L22.96 11.09Q22.98 10.77 23.02 10.42L23.02 10.42L23.02 10.42Q23.05 10.08 23.07 9.77L23.07 9.77L23.07 9.77Q23.09 9.46 23.11 9.24L23.11 9.24L23.11 9.24Q23.12 9.01 23.11 8.93L23.11 8.93L23.11 8.93Q23.04 8.68 22.91 8.58L22.91 8.58L22.91 8.58Q22.79 8.48 22.72 8.56L22.72 8.56L22.72 8.56Q22.54 8.76 22.35 9.22L22.35 9.22L22.35 9.22Q22.15 9.68 21.97 10.22L21.97 10.22L21.97 10.22Q21.79 10.76 21.67 11.29L21.67 11.29L21.67 11.29Q21.55 11.83 21.52 12.20ZM26.97 12.71L26.97 12.71L26.97 12.71Q26.02 12.71 25.50 12.07L25.50 12.07L25.50 12.07Q24.98 11.43 24.98 10.39L24.98 10.39L24.98 10.39Q24.98 9.67 25.19 9.03L25.19 9.03L25.19 9.03Q25.40 8.39 25.76 7.93L25.76 7.93L25.76 7.93Q26.11 7.46 26.58 7.20L26.58 7.20L26.58 7.20Q27.06 6.93 27.58 6.93L27.58 6.93L27.58 6.93Q28.08 6.93 28.44 7.29L28.44 7.29L28.44 7.29Q28.79 7.66 28.79 8.33L28.79 8.33L28.79 8.33Q28.79 8.76 28.60 9.19L28.60 9.19L28.60 9.19Q28.41 9.63 28.10 9.96L28.10 9.96L28.10 9.96Q27.79 10.29 27.43 10.50L27.43 10.50L27.43 10.50Q27.06 10.71 26.71 10.71L26.71 10.71L26.71 10.71Q26.50 10.71 26.35 10.65L26.35 10.65L26.35 10.65Q26.20 10.60 26.07 10.49L26.07 10.49L26.07 10.49Q26.11 11.27 26.41 11.57L26.41 11.57L26.41 11.57Q26.71 11.88 27.19 11.88L27.19 11.88L27.19 11.88Q27.52 11.88 27.77 11.74L27.77 11.74L27.77 11.74Q28.03 11.61 28.21 11.43L28.21 11.43L28.21 11.43Q28.38 11.25 28.49 11.07L28.49 11.07L28.49 11.07Q28.60 10.88 28.64 10.79L28.64 10.79L28.64 10.79Q28.68 10.71 28.79 10.71L28.79 10.71L28.79 10.71Q28.89 10.71 28.89 10.87L28.89 10.87L28.89 10.87Q28.89 11.02 28.79 11.33L28.79 11.33L28.79 11.33Q28.68 11.63 28.45 11.94L28.45 11.94L28.45 11.94Q28.22 12.25 27.86 12.48L27.86 12.48L27.86 12.48Q27.49 12.71 26.97 12.71ZM27.60 7.52L27.60 7.52L27.60 7.52Q27.52 7.52 27.30 7.69L27.30 7.69L27.30 7.69Q27.07 7.86 26.82 8.19L26.82 8.19L26.82 8.19Q26.56 8.52 26.35 8.98L26.35 8.98L26.35 8.98Q26.14 9.43 26.09 10.01L26.09 10.01L26.09 10.01Q26.91 9.82 27.38 9.41L27.38 9.41L27.38 9.41Q27.86 9.00 27.86 8.20L27.86 8.20L27.86 8.20Q27.86 7.81 27.77 7.66L27.77 7.66L27.77 7.66Q27.67 7.52 27.60 7.52Z"></path></g><!----><!----></svg>