<?xml version="1.0" encoding="iso-8859-1"?>
<!-- Generator: Adobe Illustrator 19.0.0, SVG Export Plug-In . SVG Version: 6.00 Build 0)  -->
<svg version="1.1" id="Layer_1" xmlns="http://www.w3.org/2000/svg" xmlns:xlink="http://www.w3.org/1999/xlink" x="0px" y="0px"
	 viewBox="0 0 511.999 511.999" style="enable-background:new 0 0 511.999 511.999;" xml:space="preserve">
<path style="fill:#49CEAB;" d="M404.7,472.751c0,0-0.024,0-0.072,0.012c-39.819,11.234-88.579,21.309-141.635,28.585
	C123.806,520.462,7.848,513.15,3.999,485.023c-3.861-28.115,105.798-66.389,244.936-85.49c0.048-0.012,0.072-0.012,0.072-0.012
	C388.193,380.419,504.151,387.72,508,415.846C510.389,433.234,469.315,454.519,404.7,472.751z"/>
<path style="fill:#3ABA96;" d="M303.896,484.598c-13.273,2.268-26.944,4.38-40.905,6.299
	C129.983,509.165,18.188,503.289,5.168,478.191c12.465-27.21,115.608-61.068,243.765-78.661
	c-3.005,0.676-101.37,23.035-96.821,66.993C154.719,491.681,234.647,490.462,303.896,484.598z"/>
<path style="fill:#F9E178;" d="M270.484,216.193c0,0,85.14,76.706,65.967,213.985l-0.012-0.024
	c-0.422-1.581-28.091-102.926-88.966-125.756c-61.358-23.011-72.857,151.095-72.857,151.095c0-0.012-0.012-0.012-0.012-0.024
	c-1.062-1.605-50.027-77.032-3.825-192.483c32.941-82.353-12.959-116.236-65.267-126.818c-13.852-2.799-28.151-3.97-41.545-3.97
	c23.433-16.893,58.51-33.062,98.498-21.345c0.06,0.012,0.109,0.036,0.169,0.048c14.926,4.404,30.54,12.694,46.492,26.293
	c12.525,10.679,25.46,18.824,38.48,24.929h0.012c84.211,39.505,171.656-6.516,171.656-6.516S384.005,229.237,270.484,216.193z"/>
<g>
	<path style="fill:#E8D170;" d="M187.359,276.115c-12.597,33.508-39.421,118.492-12.754,179.355
		c-1.062-1.605-50.027-77.032-3.825-192.483c32.941-82.353-12.959-116.236-65.267-126.818c0,0,54.769-3.523,72.459,23.023
		C195.672,185.738,199.956,242.607,187.359,276.115z"/>
	<path style="fill:#E8D170;" d="M336.451,430.179l-0.012-0.024c-0.422-1.581-28.091-102.926-88.966-125.756
		C247.473,304.399,322.394,297.823,336.451,430.179z"/>
</g>
<path style="fill:#F24141;" d="M329.841,320.425c-14.262,14.262-41.882,14.154-41.882,14.154
	c-11.354-13.237-24.821-24.302-40.483-30.178c-26.872-10.075-44.175,17.641-55.143,51.982c-23.735,0-40.459-12.706-40.459-12.706
	h-0.29c1.327-18.582,5.008-39.131,12.199-61.37l0.145-0.048c0,0,67.053-24.977,151.904,0
	C321.069,293.603,325.919,306.333,329.841,320.425z"/>
<circle style="fill:#F9E178;" cx="257.799" cy="105.195" r="60.996"/>
<path style="fill:#E8D170;" d="M271.076,152.918c-26.355,0-47.721-21.366-47.721-47.721s21.366-47.721,47.721-47.721
	c25.532,0,46.381,20.051,47.66,45.266c-1.291-32.545-28.07-58.539-60.933-58.539c-33.687,0-60.994,27.309-60.994,60.994
	c0,33.687,27.309,60.994,60.994,60.994c32.863,0,59.642-25.992,60.933-58.539C317.457,132.868,296.608,152.918,271.076,152.918z"/>
<g>
	<path style="fill:#216B84;" d="M246.605,102.359c-3.602,0-6.64-3.041-6.637-6.637c0.004-3.873,3.481-7.021,7.336-6.599
		c3.54,0.387,6.218,3.592,5.91,7.157C252.921,99.669,250.015,102.359,246.605,102.359z"/>
	<path style="fill:#216B84;" d="M295.689,100.525c-3.607,0-6.635-3.031-6.637-6.637c-0.001-3.69,3.171-6.76,6.86-6.632
		c3.453,0.119,6.295,2.961,6.407,6.414C302.439,97.366,299.393,100.525,295.689,100.525z"/>
</g>
<path style="fill:#4D4D4D;" d="M291.504,114.655c0.302,5.756-1.991,11.041-5.84,14.745c-3.198,3.065-7.469,5.032-12.235,5.285
	c-4.995,0.253-9.641-1.436-13.201-4.416c-3.934-3.282-6.54-8.133-6.818-13.659L291.504,114.655z"/>
<path style="fill:#F24141;" d="M285.663,129.4c-3.198,3.065-7.469,5.032-12.235,5.285c-4.995,0.253-9.641-1.436-13.201-4.416
	c3.186-3.065,7.457-5.032,12.223-5.285C277.458,124.73,282.104,126.419,285.663,129.4z"/>
<path style="fill:#F2D546;" d="M307.769,74.015c-6.407-3.813-12.573-6.709-18.486-8.808c-4.259-1.52-8.386-2.63-12.368-3.379
	c-1.11-0.217-2.208-0.398-3.294-0.555c-9.798-1.388-18.739-0.627-26.824,1.508c-1.762,0.471-3.487,1.002-5.164,1.593
	c-5.032,1.762-9.689,4.054-13.961,6.637c-26.932,16.35-59.511,11.644-81.34-7.155c-0.012,0-0.012-0.012-0.024-0.012
	c-10.136-8.736-17.955-20.513-21.804-34.643c-0.121-0.446-0.181-0.688-0.181-0.688C185.862,47.819,230.508-7.011,275.154,0.76
	C336.017,11.354,307.769,74.015,307.769,74.015z"/>
<path style="fill:#F9E280;" d="M275.154,0.76c-4.18-0.728-8.361-0.906-12.555-0.648c1.873,0.116,3.745,0.322,5.617,0.648
	c52.628,9.161,38.631,57.243,33.879,70.09c1.871,0.979,3.761,2.026,5.675,3.165C307.769,74.015,336.017,11.354,275.154,0.76z"/>
<g>
	<path style="fill:#D8BA3A;" d="M178.66,51.441c-14.48,0-28.962-18.797-28.962-18.797l-25.193-3.445
		C141.54,56.43,178.66,51.441,178.66,51.441z"/>
	<path style="fill:#D8BA3A;" d="M286.81,59.909c-1.919-3.572-4.296-6.878-7.059-9.726c-0.724-0.7-1.376-1.424-2.136-2.063
		l-2.293-1.834c-0.76-0.591-1.629-1.086-2.425-1.605l-1.207-0.748l-1.303-0.615c-3.33-1.774-7.011-2.51-10.437-3.041
		c2.956,1.955,5.683,3.982,7.674,6.624l0.784,0.929l0.664,1.014c0.422,0.688,0.881,1.315,1.255,2.015l1.026,2.112
		c0.338,0.688,0.555,1.46,0.833,2.172c0.41,1.195,0.748,2.413,1.001,3.644c-7.964-5.852-28.428-17.665-61.346-15.385
		c0,0,17.267,3.367,25.932,14.01c-10.674,4.993-57.329,24.767-91.44,6.442c21.828,18.799,54.407,23.505,81.34,7.155
		c4.271-2.582,8.929-4.875,13.961-6.637c0.736-0.259,1.484-0.502,2.237-0.738c0.237-0.074,0.474-0.146,0.713-0.218
		c0.544-0.164,1.093-0.321,1.645-0.473c8.227-2.256,17.365-3.091,27.393-1.672c1.086,0.157,2.184,0.338,3.294,0.555
		c3.982,0.748,8.109,1.858,12.368,3.379C288.559,63.385,287.715,61.623,286.81,59.909z"/>
</g>
<g>
	<path style="fill:#E8D170;" d="M247.606,162.124c-4.839,0.591-15.795,0.652-31.023-6.95
		c-20.911-10.462-24.869-35.137-53.466-44.115c-0.169-0.048-0.326-0.109-0.483-0.157c14.926,4.404,30.54,12.694,46.492,26.293
		C221.651,147.873,234.586,156.018,247.606,162.124z"/>
	<circle style="fill:#E8D170;" cx="209.75" cy="194.582" r="4.425"/>
	<circle style="fill:#E8D170;" cx="256.411" cy="201.822" r="4.425"/>
	<circle style="fill:#E8D170;" cx="238.71" cy="248.483" r="4.425"/>
</g>
<g>
</g>
<g>
</g>
<g>
</g>
<g>
</g>
<g>
</g>
<g>
</g>
<g>
</g>
<g>
</g>
<g>
</g>
<g>
</g>
<g>
</g>
<g>
</g>
<g>
</g>
<g>
</g>
<g>
</g>
</svg>
