<?xml version="1.0" encoding="iso-8859-1"?>
<!-- Generator: Adobe Illustrator 19.0.0, SVG Export Plug-In . SVG Version: 6.00 Build 0)  -->
<svg version="1.1" id="Layer_1" xmlns="http://www.w3.org/2000/svg" xmlns:xlink="http://www.w3.org/1999/xlink" x="0px" y="0px"
	 viewBox="0 0 512 512" style="enable-background:new 0 0 512 512;" xml:space="preserve">
<path style="fill:#56677E;" d="M167.153,487.268l150.2-37.55v-6.672c0-4.498,3.645-8.144,8.144-8.144
	c4.499,0,8.144,3.646,8.144,8.144v2.6l7.255-1.813c4.363-1.09,8.785,1.561,9.877,5.926c1.09,4.363-1.561,8.785-5.926,9.876
	l-150.2,37.55v6.672c0,4.498-3.645,8.144-8.144,8.144c-4.499,0-8.144-3.646-8.144-8.144v-2.6l-7.255,1.813
	c-0.663,0.166-1.328,0.245-1.982,0.245c-3.649,0-6.969-2.47-7.896-6.171C160.137,492.781,162.789,488.359,167.153,487.268z"/>
<polygon style="fill:#435670;" points="304.515,469.717 271.639,461.146 204.38,477.962 237.88,486.375 "/>
<path style="fill:#56677E;" d="M344.847,487.268l-150.2-37.55v-6.672c0-4.498-3.645-8.144-8.144-8.144s-8.144,3.646-8.144,8.144v2.6
	l-7.255-1.813c-4.363-1.09-8.785,1.561-9.877,5.926c-1.09,4.363,1.562,8.785,5.926,9.876l150.2,37.55v6.672
	c0,4.498,3.645,8.144,8.144,8.144s8.144-3.646,8.144-8.144v-2.6l7.255,1.813c0.663,0.166,1.328,0.245,1.982,0.245
	c3.649,0,6.969-2.47,7.896-6.171C351.863,492.781,349.211,488.359,344.847,487.268z"/>
<path style="fill:#FF8C78;" d="M316.81,414.787v10.884c0,9.596-7.778,17.374-17.374,17.374h-86.872
	c-9.596,0-17.374-7.778-17.374-17.374v-10.884c-26.304-18.924-43.436-49.797-43.436-84.675c0-57.573,46.673-104.246,104.246-104.246
	s104.246,46.673,104.246,104.246C360.246,364.99,343.114,395.863,316.81,414.787z M221.251,382.235
	c14.394,0,26.062-11.668,26.062-26.062c0-14.394-11.668-26.061-26.062-26.061s-26.062,11.668-26.062,26.061
	C195.19,370.568,206.858,382.235,221.251,382.235z M290.749,382.235c14.394,0,26.061-11.668,26.061-26.062
	c0-14.394-11.668-26.061-26.061-26.061s-26.062,11.668-26.062,26.061C264.687,370.568,276.355,382.235,290.749,382.235z"/>
<g>
	<path style="fill:#DB6B5E;" d="M177.815,330.112c0-53.16,39.793-97.024,91.215-103.437c-4.269-0.532-8.618-0.809-13.031-0.809
		c-57.573,0-104.246,46.673-104.246,104.246c0,34.878,17.132,65.751,43.436,84.675v10.884c0,9.596,7.778,17.374,17.374,17.374h0.362
		v-31.127c0-2.368-0.966-4.635-2.682-6.267C190.273,386.662,177.815,359.846,177.815,330.112z"/>
	<path style="fill:#DB6B5E;" d="M229.938,416.984c-4.797,0-8.687,3.89-8.687,8.687v17.374h17.374v-17.374
		C238.626,420.874,234.736,416.984,229.938,416.984z"/>
	<path style="fill:#DB6B5E;" d="M256,416.984c-4.797,0-8.687,3.89-8.687,8.687v17.374h17.374v-17.374
		C264.687,420.874,260.797,416.984,256,416.984z"/>
	<path style="fill:#DB6B5E;" d="M282.062,416.984c-4.797,0-8.687,3.89-8.687,8.687v17.374h17.374v-17.374
		C290.749,420.874,286.859,416.984,282.062,416.984z"/>
</g>
<circle style="fill:#FFD6C4;" cx="308.123" cy="277.989" r="17.374"/>
<path style="fill:#7EC97D;" d="M427.997,184.177c-4.447,0-8.892-1.696-12.285-5.089c-42.662-42.661-99.381-66.155-159.713-66.155
	s-117.051,23.494-159.711,66.155c-6.785,6.786-17.786,6.785-24.571,0c-6.786-6.786-6.786-17.786,0-24.571
	C120.942,105.293,186.389,78.185,256,78.185s135.058,27.108,184.282,76.332C450.597,164.83,442.584,184.177,427.997,184.177z"/>
<path style="fill:#59AD57;" d="M96.289,179.088c42.661-42.661,99.38-66.155,159.711-66.155s117.051,23.494,159.711,66.155
	c3.392,3.392,7.839,5.089,12.285,5.089c6.597,0,11.841-3.961,14.661-9.25c-0.646-1.073-1.432-2.093-2.376-3.036
	C391.058,122.667,325.611,95.559,256,95.559s-135.058,27.108-184.282,76.332c-1.098,1.098-1.999,2.315-2.742,3.599
	c0.743,1.284,1.644,2.5,2.742,3.599C78.503,185.873,89.504,185.873,96.289,179.088z"/>
<path style="fill:#7EC97D;" d="M477.138,126.348c-4.448,0-8.892-1.696-12.285-5.09C409.068,65.472,334.895,34.749,256,34.749
	s-153.068,30.723-208.854,86.51c-6.785,6.786-17.786,6.786-24.571,0c-6.786-6.786-6.786-17.786,0-24.571
	C84.925,34.338,167.823,0,256,0s171.075,34.338,233.424,96.688c6.786,6.786,6.786,17.786,0,24.571
	C486.032,124.651,481.585,126.348,477.138,126.348z"/>
<path style="fill:#59AD57;" d="M47.146,121.259C102.932,65.472,177.105,34.749,256,34.749s153.068,30.723,208.854,86.51
	c3.392,3.393,7.838,5.09,12.285,5.09s8.892-1.697,12.285-5.089c1.098-1.098,1.999-2.315,2.742-3.599
	c-0.743-1.284-1.644-2.5-2.742-3.599C427.075,51.713,344.177,17.374,256,17.374S84.925,51.713,22.576,114.063
	c-1.098,1.098-1.999,2.315-2.742,3.599c0.743,1.284,1.644,2.5,2.742,3.599C29.36,128.045,40.362,128.045,47.146,121.259z"/>
<path style="fill:#7EC97D;" d="M378.855,242.006c-4.447,0-8.892-1.696-12.285-5.09c-29.535-29.533-68.802-45.799-110.57-45.799
	s-81.035,16.266-110.569,45.799c-6.785,6.786-17.786,6.786-24.571,0c-6.786-6.785-6.786-17.786,0-24.571
	c36.097-36.097,84.091-55.977,135.14-55.977s99.042,19.88,135.14,55.977C401.456,222.66,393.441,242.006,378.855,242.006z"/>
<path style="fill:#59AD57;" d="M145.431,236.916c29.534-29.533,68.801-45.799,110.569-45.799s81.035,16.266,110.569,45.799
	c3.392,3.393,7.839,5.09,12.285,5.09c6.316,0,11.395-3.63,14.293-8.581c-0.573-0.864-1.233-1.695-2.008-2.47
	c-36.097-36.097-84.091-55.977-135.14-55.977s-99.042,19.879-135.14,55.977c-0.922,0.921-1.706,1.925-2.377,2.981
	c0.671,1.055,1.456,2.06,2.377,2.981C127.645,243.702,138.646,243.702,145.431,236.916z"/>
<g>
</g>
<g>
</g>
<g>
</g>
<g>
</g>
<g>
</g>
<g>
</g>
<g>
</g>
<g>
</g>
<g>
</g>
<g>
</g>
<g>
</g>
<g>
</g>
<g>
</g>
<g>
</g>
<g>
</g>
</svg>
